<mxfile host="app.diagrams.net" modified="2023-06-26T09:41:00.663Z" agent="Mozilla/5.0 (Windows NT 10.0; Win64; x64) AppleWebKit/537.36 (KHTML, like Gecko) Chrome/114.0.0.0 Safari/537.36" version="21.3.8" etag="67LwVHz6Cf4F1fb6HgKk" type="github">
  <diagram name="第 1 页" id="Ul4ZFm7pZ5l89nozWUel">
    <mxGraphModel>
      <root>
        <mxCell id="0" />
        <mxCell id="1" parent="0" />
      </root>
    </mxGraphModel>
  </diagram>
</mxfile>
